<svg xmlns="http://www.w3.org/2000/svg" viewBox="0 0 283.46 283.46"><defs><style>.cls-1{fill:#fff;}.cls-2{fill:#e5e5e5;}</style></defs><g id="Шапка"><path class="cls-1" d="M283.46,28.34V255.11a28.34,28.34,0,0,1-28.34,28.35H28.35A28.35,28.35,0,0,1,0,255.11V28.34A28.34,28.34,0,0,1,28.35,0H255.12A28.34,28.34,0,0,1,283.46,28.34Z"/><path class="cls-2" d="M54.86,239.75c4.46-1.12,2.59-8.1-1.83-6.84l-24,6.42a3.55,3.55,0,0,1-4.34-2.51l-6.42-24c-1.12-4.46-8.1-2.58-6.84,1.84l6.41,24a3.54,3.54,0,0,1-2.5,4.34l-24,6.42c-4.46,1.12-2.59,8.09,1.83,6.84l24-6.42a3.54,3.54,0,0,1,4.34,2.51l6.42,24c1.13,4.46,8.1,2.59,6.85-1.83l-6.42-24a3.54,3.54,0,0,1,2.5-4.34Z"/><path class="cls-2" d="M58.62,105.71c4.46-1.13,2.59-8.1-1.83-6.85l-24,6.42a3.53,3.53,0,0,1-4.34-2.5l-6.42-24c-1.13-4.46-8.1-2.59-6.85,1.83l6.42,24a3.54,3.54,0,0,1-2.5,4.34l-24,6.42c-4.46,1.12-2.59,8.1,1.83,6.84l24-6.42a3.55,3.55,0,0,1,4.34,2.51l6.42,24c1.13,4.46,8.1,2.59,6.85-1.84l-6.42-23.95a3.53,3.53,0,0,1,2.5-4.34Z"/><path class="cls-2" d="M37.83,219.52c2.24,4,8.49.4,6.14-3.55l-12.4-21.48a3.55,3.55,0,0,1,1.29-4.84l21.48-12.4c4-2.24.41-8.49-3.54-6.14L29.32,183.52a3.56,3.56,0,0,1-4.84-1.3l-12.4-21.48c-2.24-4-8.5-.4-6.14,3.54l12.4,21.48a3.54,3.54,0,0,1-1.29,4.84L-4.43,203c-4,2.25-.41,8.5,3.54,6.14l21.48-12.4a3.54,3.54,0,0,1,4.84,1.3Z"/><path class="cls-2" d="M42.18,66.89c2.24,4,8.49.4,6.14-3.55L35.92,41.86A3.55,3.55,0,0,1,37.21,37l21.48-12.4c4-2.24.41-8.49-3.54-6.14L33.67,30.88a3.55,3.55,0,0,1-4.84-1.29L16.43,8.11c-2.24-4-8.5-.41-6.14,3.54l12.4,21.48A3.54,3.54,0,0,1,21.4,38L-.08,50.37c-4,2.24-.41,8.5,3.54,6.14l21.48-12.4a3.54,3.54,0,0,1,4.84,1.3Z"/><path class="cls-2" d="M136,266.16c-4.46-1.13-2.59-8.1,1.83-6.85l24,6.42a3.54,3.54,0,0,0,4.34-2.5l6.42-24c1.12-4.46,8.1-2.59,6.84,1.84L173,265.06a3.55,3.55,0,0,0,2.51,4.34l24,6.42c4.46,1.13,2.59,8.1-1.84,6.85l-24-6.42a3.53,3.53,0,0,0-4.34,2.5l-6.42,24c-1.13,4.46-8.1,2.59-6.85-1.83l6.42-24a3.54,3.54,0,0,0-2.5-4.34Z"/><path class="cls-2" d="M136.24,107.08c-4.46-1.12-2.59-8.1,1.84-6.84L162,106.66a3.55,3.55,0,0,0,4.34-2.51l6.42-24c1.13-4.46,8.1-2.59,6.85,1.84l-6.42,24a3.53,3.53,0,0,0,2.5,4.33l24,6.42c4.46,1.13,2.59,8.1-1.83,6.85l-24-6.42a3.55,3.55,0,0,0-4.34,2.5l-6.42,24c-1.12,4.46-8.1,2.59-6.84-1.83l6.42-24a3.55,3.55,0,0,0-2.51-4.34Z"/><path class="cls-2" d="M157,220.89c-2.24,4-8.49.4-6.14-3.54l12.4-21.48A3.54,3.54,0,0,0,162,191l-21.48-12.4c-4-2.24-.41-8.5,3.54-6.14l21.48,12.4a3.54,3.54,0,0,0,4.84-1.3l12.4-21.48c2.24-4,8.5-.4,6.14,3.55l-12.4,21.48a3.54,3.54,0,0,0,1.3,4.84l21.48,12.4c4,2.24.4,8.49-3.55,6.14l-21.48-12.41a3.56,3.56,0,0,0-4.84,1.3Z"/><path class="cls-2" d="M156.83,61.71c-2.24,4-8.49.41-6.14-3.54l12.4-21.48a3.54,3.54,0,0,0-1.29-4.84l-21.48-12.4c-4-2.24-.41-8.5,3.54-6.14l21.48,12.4a3.54,3.54,0,0,0,4.84-1.3l12.4-21.48c2.24-4,8.5-.4,6.14,3.55L176.32,28a3.55,3.55,0,0,0,1.29,4.84L199.1,45.2c4,2.24.4,8.49-3.55,6.14l-21.48-12.4a3.55,3.55,0,0,0-4.84,1.29Z"/><path class="cls-2" d="M67.31,16.88C62.86,18,64.73,25,69.15,23.73l24-6.42a3.54,3.54,0,0,1,4.34,2.5l6.42,24c1.12,4.46,8.1,2.59,6.84-1.83l-6.42-24a3.55,3.55,0,0,1,2.51-4.34l24-6.42c4.46-1.12,2.59-8.1-1.83-6.84L105,6.8a3.55,3.55,0,0,1-4.34-2.51l-6.42-24c-1.12-4.46-8.1-2.59-6.84,1.84l6.42,24a3.55,3.55,0,0,1-2.51,4.34Z"/><path class="cls-2" d="M67.46,176c-4.45,1.13-2.58,8.1,1.84,6.85l24-6.42a3.54,3.54,0,0,1,4.34,2.5l6.42,24c1.12,4.46,8.1,2.59,6.84-1.83l-6.42-24a3.55,3.55,0,0,1,2.51-4.34l24-6.42c4.45-1.13,2.58-8.1-1.84-6.85l-24,6.42a3.54,3.54,0,0,1-4.34-2.5l-6.42-24c-1.12-4.46-8.1-2.59-6.84,1.83l6.42,24a3.55,3.55,0,0,1-2.51,4.34Z"/><path class="cls-2" d="M88.25,62.15c-2.24-4-8.49-.4-6.13,3.55l12.4,21.48A3.54,3.54,0,0,1,93.22,92l-21.48,12.4c-4,2.24-.4,8.49,3.54,6.13l21.49-12.4a3.53,3.53,0,0,1,4.83,1.3L114,120.93c2.24,4,8.49.4,6.13-3.54l-12.4-21.48a3.53,3.53,0,0,1,1.3-4.84l21.48-12.41c4-2.24.4-8.49-3.54-6.13L105.5,84.93a3.53,3.53,0,0,1-4.84-1.3Z"/><path class="cls-2" d="M88.05,221.33c-2.24-4-8.49-.4-6.13,3.55l12.4,21.47A3.55,3.55,0,0,1,93,251.2L71.54,263.6c-4,2.24-.4,8.49,3.54,6.13l21.48-12.4a3.53,3.53,0,0,1,4.84,1.3l12.41,21.48c2.24,4,8.49.4,6.13-3.54l-12.4-21.48a3.53,3.53,0,0,1,1.3-4.84l21.48-12.41c4-2.24.4-8.49-3.54-6.13l-21.48,12.4a3.53,3.53,0,0,1-4.84-1.3Z"/><path class="cls-2" d="M273.63,17.61c4.46,1.12,2.59,8.1-1.84,6.84l-24-6.42a3.55,3.55,0,0,0-4.34,2.51l-6.42,24C236,49,229,47.08,230.23,42.66l6.42-24a3.54,3.54,0,0,0-2.5-4.34l-24-6.42C205.73,6.82,207.6-.16,212,1.1l24,6.42A3.55,3.55,0,0,0,240.32,5l6.42-24c1.12-4.46,8.1-2.59,6.84,1.83l-6.42,24a3.55,3.55,0,0,0,2.51,4.34Z"/><path class="cls-2" d="M273.48,176.69c4.46,1.12,2.59,8.1-1.84,6.84l-24-6.42a3.54,3.54,0,0,0-4.33,2.51l-6.42,23.95c-1.13,4.46-8.1,2.59-6.85-1.83l6.42-24a3.55,3.55,0,0,0-2.5-4.34L210,167c-4.46-1.12-2.59-8.1,1.83-6.84l24,6.42a3.55,3.55,0,0,0,4.34-2.51l6.42-24c1.12-4.45,8.1-2.58,6.84,1.84l-6.42,24a3.55,3.55,0,0,0,2.51,4.34Z"/><path class="cls-2" d="M252.69,62.88c2.24-4,8.49-.41,6.13,3.54L246.42,87.9a3.55,3.55,0,0,0,1.3,4.84l21.48,12.4c4,2.24.4,8.5-3.54,6.14l-21.48-12.4a3.54,3.54,0,0,0-4.84,1.29l-12.41,21.48c-2.24,4-8.49.41-6.13-3.54l12.4-21.48a3.54,3.54,0,0,0-1.3-4.84l-21.48-12.4c-4-2.24-.4-8.5,3.55-6.14l21.48,12.4a3.55,3.55,0,0,0,4.84-1.29Z"/><path class="cls-2" d="M252.89,222.05c2.24-4,8.49-.4,6.14,3.55l-12.41,21.48a3.56,3.56,0,0,0,1.3,4.84l21.48,12.4c4,2.24.4,8.49-3.54,6.14l-21.48-12.4a3.54,3.54,0,0,0-4.84,1.29l-12.4,21.48c-2.25,4-8.5.41-6.14-3.54l12.4-21.48a3.54,3.54,0,0,0-1.3-4.84l-21.48-12.4c-4-2.24-.4-8.5,3.55-6.14l21.48,12.4a3.55,3.55,0,0,0,4.84-1.29Z"/><path d="M91.22,54.47c6,6,10.93,15.2,13.91,24,7.67,22.59,2.79,45.91-8.73,66.28-3.18,5.61,5.46,10.66,8.63,5,12.59-22.25,18.12-48.22,10.07-73-3.41-10.5-8.94-21.43-16.81-29.36-4.54-4.57-11.61,2.5-7.07,7.08Z"/><path d="M171.61,46.12c14.65,28,14.19,65.06,0,93.09-2.9,5.73,5.72,10.79,8.63,5,15.86-31.32,16.48-71.74,0-103.19-3-5.7-11.62-.65-8.63,5Z"/><path d="M56.1,205.78c11.4,5,23.67,8.35,35.83,10.9,26.72,5.62,54.41,6.68,81.33,1.83a175.32,175.32,0,0,0,54.1-19.4c5.63-3.13.59-11.77-5-8.64C176.4,216,120.88,217,71.62,200.93c-2.81-.91-5.59-1.88-8.35-3L61,197.09c-1.31-.53,1,.45.14,0-5.84-2.57-10.93,6.05-5,8.64Z"/></g></svg>